HIERARCHY
ROOT Hips
{
	OFFSET 0.00000 0.00000 0.00000
	CHANNELS 6 Xposition Yposition Zposition Zrotation Yrotation Xrotation 
	JOINT LHipJoint
	{
		OFFSET 0 0 0
		CHANNELS 3 Zrotation Yrotation Xrotation
		JOINT LeftHip
		{
			OFFSET 1.48831 -1.59570 0.95625
			CHANNELS 3 Zrotation Yrotation Xrotation
			JOINT LeftKnee
			{
				OFFSET 2.20856 -6.06797 0.00000
				CHANNELS 3 Zrotation Yrotation Xrotation
				JOINT LeftAnkle
				{
					OFFSET 2.62924 -7.22379 0.00000
					CHANNELS 3 Zrotation Yrotation Xrotation
					JOINT LeftToe
					{
						OFFSET 0.16802 -0.46163 2.41673
						CHANNELS 3 Zrotation Yrotation Xrotation
						End Site
						{
							OFFSET 0.00000 -0.00000 1.23760
						}
					}
				}
			}
		}
	}
	JOINT RHipJoint
	{
		OFFSET 0 0 0
		CHANNELS 3 Zrotation Yrotation Xrotation
		JOINT RightHip
		{
			OFFSET -1.56796 -1.59570 0.95625
			CHANNELS 3 Zrotation Yrotation Xrotation
			JOINT RightKnee
			{
				OFFSET -2.29239 -6.29829 0.00000
				CHANNELS 3 Zrotation Yrotation Xrotation
				JOINT RightAnkle
				{
					OFFSET -2.66963 -7.33475 0.00000
					CHANNELS 3 Zrotation Yrotation Xrotation
					JOINT RightToe
					{
						OFFSET -0.18185 -0.49964 2.34359
						CHANNELS 3 Zrotation Yrotation Xrotation
						End Site
						{
							OFFSET -0.00000 -0.00000 1.20477
						}
					}
				}
			}
		}
	}
	JOINT lowerback
	{
		OFFSET 0 0 0
		CHANNELS 3 Zrotation Yrotation Xrotation
		JOINT Chest
		{
			OFFSET 0.03505 2.15832 -0.34324
			CHANNELS 3 Zrotation Yrotation Xrotation
			JOINT Chest2
			{
				OFFSET -0.01089 2.17963 0.04689
				CHANNELS 3 Zrotation Yrotation Xrotation
				JOINT lowerneck
				{
					OFFSET 0 0 0
					CHANNELS 3 Zrotation Yrotation Xrotation
					JOINT Neck
					{
						OFFSET 0.04686 1.69404 0.22159
						CHANNELS 3 Zrotation Yrotation Xrotation
						JOINT Head
						{
							OFFSET 0.00265 1.69305 -0.01513
							CHANNELS 3 Zrotation Yrotation Xrotation
							End Site
							{
								OFFSET -0.00415 1.80215 -0.03034
							}
						}
					}
				}
				JOINT LeftCollar
				{
					OFFSET 0 0 0
					CHANNELS 3 Zrotation Yrotation Xrotation
					JOINT LeftShoulder
					{
						OFFSET 3.67184 1.11724 -0.19002
CHANNELS 3 Zrotation Xrotation Yrotation
						JOINT LeftElbow
						{
OFFSET 0 -5.177140 -0.000000
CHANNELS 3 Zrotation Xrotation Yrotation
							JOINT LeftWrist
							{
OFFSET 0 -3.436790 -0.000000
CHANNELS 3 Zrotation Xrotation Yrotation
								JOINT lhand
								{
									OFFSET 0 0 0
CHANNELS 3 Zrotation Xrotation Yrotation
									JOINT LFingers
									{
OFFSET 0 -0.573120 -0.000000
CHANNELS 3 Zrotation Xrotation Yrotation
										End Site
										{
OFFSET 0 -0.462060 -0.000000
										}
									}
								}
								JOINT LThumb
								{
OFFSET 0 0.000000 0.000000
CHANNELS 3 Zrotation Xrotation Yrotation
									End Site
									{
OFFSET 0 -0.469120 0.469120
									}
								}
							}
						}
					}
				}
				JOINT RightCollar
				{
					OFFSET 0 0 0
					CHANNELS 3 Zrotation Yrotation Xrotation
					JOINT RightShoulder
					{
						OFFSET -3.59596 0.95831 -0.26050
CHANNELS 3 Zrotation Xrotation Yrotation
						JOINT RightElbow
						{
OFFSET 0 -5.239080 -0.000000
CHANNELS 3 Zrotation Xrotation Yrotation
							JOINT RightWrist
							{
OFFSET 0 -3.464850 -0.000000
CHANNELS 3 Zrotation Xrotation Yrotation
								JOINT rhand
								{
									OFFSET 0 0 0
CHANNELS 3 Zrotation Xrotation Yrotation
									JOINT RFingers
									{
OFFSET 0 -0.608750 -0.000000
CHANNELS 3 Zrotation Xrotation Yrotation
										End Site
										{
OFFSET 0 -0.490790 -0.000000
										}
									}
								}
								JOINT RThumb
								{
OFFSET 0 0.000000 0.000000
CHANNELS 3 Zrotation Xrotation Yrotation
									End Site
									{
OFFSET 0 -0.498290 0.498290
									}
								}
							}
						}
					}
				}
			}
		}
	}
}
MOTION
Frames: 10
Frame Time: 0.008333333333333333
10.653882 16.130460 -2.163587 -16.647445 -60.314287 11.561187 0.000000 0.000000 0.000000 -11.915220 1.051768 -25.953772 1.441553 7.590382 21.476764 0.009479 9.552499 -13.770095 0.385113 -3.985167 -11.034987 0.000000 0.000000 0.000000 32.369160 -0.635149 5.241376 -2.653517 -10.111779 29.339440 -1.608881 1.485885 -23.561378 -0.100528 2.043722 -5.626666 8.094855 -0.083142 1.095560 0.855624 -0.367308 5.189158 -3.653540 0.104966 4.765882 3.719042 1.423167 -10.335816 -2.792281 1.508434 27.939191 -1.497114 0.569567 10.715983 0.000000 0.000000 0.000000 2.411730 3.784458 -7.764701 9.256765 -15.568729 1.268137 15.277531 -6.563905 -9.751433 0.000000 0.000000 0.000000 -7.125000 0.000000 0.000000 -10.231666 39.877012 -1.307841 0.000000 0.000000 0.000000 -7.528555 -5.783466 38.586248 -22.094507 -33.083719 -6.637333 -18.736399 0.223659 6.483585 0.000000 0.000000 0.000000 7.125000 0.000000 0.000000 6.772588 36.749224 1.382256
10.474545 16.131386 -2.012494 -16.799844 -60.721213 11.618602 0.000000 0.000000 0.000000 -11.884845 1.844246 -25.991973 1.584563 7.940937 22.534874 -0.081032 9.650666 -12.263045 0.323982 -3.657782 -10.115917 0.000000 0.000000 0.000000 32.023887 -0.770953 5.177359 -2.947609 -10.609266 30.973557 -1.502829 1.728271 -22.687823 -0.168051 2.639104 -7.275642 7.797305 -0.001258 1.295310 0.683116 -0.231442 5.259332 -3.663110 0.164874 4.739156 3.641711 1.475969 -10.323100 -2.683638 1.568588 27.966963 -1.437831 0.600316 10.724824 0.000000 0.000000 0.000000 2.533196 3.355986 -8.224271 9.337928 -15.697311 1.289991 15.477723 -6.863740 -9.675064 0.000000 0.000000 0.000000 -7.125000 0.000000 0.000000 -10.044730 39.815607 -1.298658 0.000000 0.000000 0.000000 -7.270322 -5.247140 38.823060 -21.914806 -32.880566 -6.539505 -18.712967 0.538417 6.401759 0.000000 0.000000 0.000000 7.125000 0.000000 0.000000 6.781947 36.662149 1.398701
10.301304 16.138439 -1.863901 -16.490455 -61.160734 11.258489 0.000000 0.000000 0.000000 -12.241900 2.994771 -26.043637 1.707805 8.228707 23.411033 -0.121943 9.042732 -10.324081 0.232321 -3.100655 -8.559139 0.000000 0.000000 0.000000 31.338529 -0.911549 4.558269 -3.412057 -11.332432 33.411196 -1.352187 1.975752 -21.426045 -0.271533 3.348888 -9.251941 7.301482 0.086968 1.584899 0.419875 -0.074600 5.337968 -3.656288 0.227925 4.669553 3.577306 1.526313 -10.311932 -2.573908 1.623028 27.968465 -1.380715 0.630378 10.723933 0.000000 0.000000 0.000000 2.732766 2.894259 -8.854011 9.518377 -15.982615 1.339304 15.675026 -7.276988 -9.354623 0.000000 0.000000 0.000000 -7.125000 0.000000 0.000000 -9.814980 39.504800 -1.344157 0.000000 0.000000 0.000000 -6.913955 -4.688091 38.889202 -21.635544 -32.562628 -6.388655 -18.713483 0.829143 6.330739 0.000000 0.000000 0.000000 7.125000 0.000000 0.000000 6.772763 36.587925 1.409112
10.135751 16.152868 -1.718775 -15.749793 -61.598375 10.583748 0.000000 0.000000 0.000000 -12.928941 4.123598 -26.050385 1.811687 8.462076 24.126652 -0.127700 8.293590 -8.744031 0.166795 -2.629849 -7.249901 0.000000 0.000000 0.000000 30.320692 -1.011129 3.254708 -4.077282 -12.259583 36.660781 -1.143322 2.133453 -19.610905 -0.370297 3.907411 -10.816535 6.636097 0.171108 1.894585 0.082788 0.080637 5.396883 -3.631985 0.283394 4.564245 3.538297 1.585428 -10.284263 -2.481370 1.690207 27.945019 -1.332329 0.667170 10.711165 0.000000 0.000000 0.000000 2.982080 2.467839 -9.766788 9.884610 -16.558779 1.442012 15.878999 -7.897834 -9.205879 0.000000 0.000000 0.000000 -7.125000 0.000000 0.000000 -9.612782 39.368936 -1.348397 0.000000 0.000000 0.000000 -6.496169 -4.129025 38.830055 -21.267495 -32.139134 -6.191735 -18.648123 1.096161 6.250625 0.000000 0.000000 0.000000 7.125000 0.000000 0.000000 6.817541 36.500324 1.433225
9.978638 16.173374 -1.577826 -14.695915 -62.002705 9.698053 0.000000 0.000000 0.000000 -13.755090 4.807074 -25.829701 1.887293 8.627131 24.635794 -0.126943 7.928407 -8.018119 0.123867 -2.267230 -6.244870 0.000000 0.000000 0.000000 29.072767 -0.985932 1.346142 -4.941815 -13.313590 40.561805 -0.883195 1.905787 -17.206679 -0.405214 4.086700 -11.320758 5.828223 0.246037 2.183692 -0.276358 0.217358 5.464910 -3.551000 0.324804 4.475277 3.498194 1.653266 -10.265199 -2.423424 1.780770 27.887476 -1.293053 0.711006 10.688240 0.000000 0.000000 0.000000 3.230401 2.048819 -10.924710 10.458579 -17.453352 1.610052 16.052031 -8.756262 -9.299624 0.000000 0.000000 0.000000 -7.125000 0.000000 0.000000 -9.481402 39.478297 -1.303810 0.000000 0.000000 0.000000 -6.067949 -3.635758 38.622940 -20.834345 -31.634264 -5.962885 -18.456085 1.416186 6.172492 0.000000 0.000000 0.000000 7.125000 0.000000 0.000000 6.968380 36.407990 1.481121
9.830069 16.196343 -1.440889 -13.413192 -62.363130 8.621474 0.000000 0.000000 0.000000 -14.637764 5.107758 -25.307430 1.921288 8.700127 24.861722 -0.132574 7.930797 -7.827877 0.081525 -1.837959 -5.058138 0.000000 0.000000 0.000000 27.705237 -0.754683 -0.927640 -5.974082 -14.398013 44.867744 -0.606997 0.968305 -14.398833 -0.359558 3.851258 -10.658715 4.909217 0.307077 2.474495 -0.627386 0.326231 5.578464 -3.399539 0.348590 4.427985 3.437686 1.724090 -10.281922 -2.417067 1.895309 27.783070 -1.265192 0.758707 10.655699 0.000000 0.000000 0.000000 3.472676 1.582398 -12.229485 11.173493 -18.553109 1.831155 16.048492 -9.921903 -9.109746 0.000000 0.000000 0.000000 -7.125000 0.000000 0.000000 -9.450169 39.283817 -1.345161 0.000000 0.000000 0.000000 -5.693979 -3.242679 38.346572 -20.372674 -31.088450 -5.722635 -18.168650 1.806951 6.144909 0.000000 0.000000 0.000000 7.125000 0.000000 0.000000 7.205001 36.363250 1.540019
9.689671 16.220346 -1.309615 -11.938680 -62.682179 7.358731 0.000000 0.000000 0.000000 -15.601805 5.385832 -24.595964 1.908351 8.672392 24.775878 -0.138375 7.995156 -7.760812 0.043804 -1.344501 -3.697302 0.000000 0.000000 0.000000 26.295337 -0.290929 -3.343917 -7.125244 -15.431262 49.337452 -0.355905 -0.701462 -11.522639 -0.288040 3.449535 -9.533074 3.925164 0.361165 2.833799 -0.990097 0.420218 5.716200 -3.223858 0.360991 4.364758 3.367016 1.788294 -10.310259 -2.437183 2.011221 27.631664 -1.244371 0.803717 10.607971 0.000000 0.000000 0.000000 3.777675 1.145649 -13.815181 12.066778 -19.903632 2.125773 15.996189 -11.471058 -8.689928 0.000000 0.000000 0.000000 -7.125000 0.000000 0.000000 -9.420640 38.850465 -1.442184 0.000000 0.000000 0.000000 -5.349771 -2.897229 38.062470 -19.911828 -30.535716 -5.486589 -17.866780 2.224040 6.152692 0.000000 0.000000 0.000000 7.125000 0.000000 0.000000 7.457986 36.354708 1.596366
9.558055 16.244190 -1.187338 -10.313324 -62.966083 5.969214 0.000000 0.000000 0.000000 -16.644768 5.821861 -23.855347 1.858635 8.565187 24.444416 -0.138814 7.953669 -7.651688 0.020397 -0.916924 -2.520177 0.000000 0.000000 0.000000 24.893867 0.343797 -5.788164 -8.338032 -16.357667 53.763944 -0.164645 -2.671737 -9.123323 -0.230526 3.089543 -8.528151 2.906506 0.425920 3.292678 -1.381025 0.522260 5.839900 -3.058842 0.374136 4.231005 3.298195 1.838190 -10.304380 -2.447101 2.104893 27.430129 -1.222619 0.840874 10.534134 0.000000 0.000000 0.000000 4.190557 0.788416 -15.723867 13.207101 -21.588047 2.530223 16.247010 -13.177402 -8.673438 0.000000 0.000000 0.000000 -7.125000 0.000000 0.000000 -9.203765 38.852065 -1.408137 0.000000 0.000000 0.000000 -4.986042 -2.550682 37.781927 -19.453944 -29.978546 -5.255872 -17.620935 2.613089 6.122154 0.000000 0.000000 0.000000 7.125000 0.000000 0.000000 7.659051 36.309223 1.648616
9.434140 16.266184 -1.075612 -8.644388 -63.210215 4.565834 0.000000 0.000000 0.000000 -17.687250 6.351550 -23.181187 1.796170 8.427861 24.021379 -0.131343 7.785543 -7.550814 0.009226 -0.619407 -1.701999 0.000000 0.000000 0.000000 23.566982 1.023231 -8.214521 -9.534410 -17.136033 57.915527 -0.056971 -4.402338 -8.102442 -0.198322 2.867140 -7.909083 1.882110 0.511109 3.802397 -1.773812 0.639222 5.962508 -2.893703 0.393507 4.068767 3.204361 1.873465 -10.270731 -2.435207 2.178527 27.186634 -1.191038 0.869790 10.438279 0.000000 0.000000 0.000000 4.690832 0.389860 -17.618979 14.506106 -23.451396 3.027949 16.685740 -14.642191 -8.997746 0.000000 0.000000 0.000000 -7.125000 0.000000 0.000000 -8.884496 39.218069 -1.277668 0.000000 0.000000 0.000000 -4.619000 -2.245364 37.520551 -18.985368 -29.400183 -5.023771 -17.431460 2.991751 6.060386 0.000000 0.000000 0.000000 7.125000 0.000000 0.000000 7.808815 36.234698 1.695646
9.316059 16.285355 -0.972438 -7.208866 -63.381777 3.388439 0.000000 0.000000 0.000000 -18.570131 6.839392 -22.611494 1.746369 8.316470 23.679576 -0.114850 7.520684 -7.579435 0.005662 -0.487749 -1.340190 0.000000 0.000000 0.000000 22.449443 1.638560 -10.573706 -10.607753 -17.735619 61.498251 -0.035841 -5.638189 -9.015259 -0.145458 2.452876 -6.759197 0.978537 0.607108 4.291585 -2.116027 0.756745 6.125869 -2.745399 0.417364 3.962415 3.066473 1.891551 -10.249429 -2.425074 2.237791 26.928818 -1.154226 0.888205 10.338714 0.000000 0.000000 0.000000 5.249915 -0.193524 -19.281901 15.817764 -25.270857 3.568931 16.962363 -15.787117 -9.122295 0.000000 0.000000 0.000000 -7.125000 0.000000 0.000000 -8.668725 39.367477 -1.213851 0.000000 0.000000 0.000000 -4.307557 -2.058855 37.358851 -18.488001 -28.777190 -4.782027 -17.400256 3.360771 6.015012 0.000000 0.000000 0.000000 7.125000 0.000000 0.000000 7.828884 36.186105 1.709423
